<svg xmlns="http://www.w3.org/2000/svg" id="Filled" viewBox="0 0 24 24" width="300" height="300" version="1.1" xmlns:xlink="http://www.w3.org/1999/xlink" xmlns:svgjs="http://svgjs.dev/svgjs"><g width="100%" height="100%" transform="matrix(1,0,0,1,0,0)"><path d="M22.485,10.975,12,17.267,1.515,10.975A1,1,0,1,0,.486,12.69l11,6.6a1,1,0,0,0,1.03,0l11-6.6a1,1,0,1,0-1.029-1.715Z" fill="#1c4344" fill-opacity="1" data-original-color="#000000ff" stroke="none" stroke-opacity="1"/><path d="M22.485,15.543,12,21.834,1.515,15.543A1,1,0,1,0,.486,17.258l11,6.6a1,1,0,0,0,1.03,0l11-6.6a1,1,0,1,0-1.029-1.715Z" fill="#1c4344" fill-opacity="1" data-original-color="#000000ff" stroke="none" stroke-opacity="1"/><path d="M.485,8.357l9.984,5.991a2.97,2.97,0,0,0,3.062,0l9.984-5.991a1,1,0,0,0,0-1.714L13.531.652a2.973,2.973,0,0,0-3.062,0L.485,6.643a1,1,0,0,0,0,1.714Z" fill="#1c4344" fill-opacity="1" data-original-color="#000000ff" stroke="none" stroke-opacity="1"/></g></svg>